<mxfile host="app.diagrams.net" modified="2023-10-09T13:35:39.573Z" agent="Mozilla/5.0 (Windows NT 10.0; Win64; x64) AppleWebKit/537.36 (KHTML, like Gecko) Chrome/116.0.0.0 Safari/537.36" etag="ib7XGRT5tCALAGqetQlQ" version="22.0.4" type="google">
  <diagram name="Page-1" id="13e1069c-82ec-6db2-03f1-153e76fe0fe0">
    <mxGraphModel grid="1" page="1" gridSize="10" guides="1" tooltips="1" connect="1" arrows="1" fold="1" pageScale="1" pageWidth="1100" pageHeight="850" background="none" math="0" shadow="0">
      <root>
        <mxCell id="0" />
        <mxCell id="1" parent="0" />
        <mxCell id="sWoRMy00fatXpeOjU7ja-36" value="Sucker" style="shape=umlLifeline;perimeter=lifelinePerimeter;whiteSpace=wrap;html=1;container=1;collapsible=0;recursiveResize=0;outlineConnect=0;rounded=1;shadow=0;comic=0;labelBackgroundColor=none;strokeWidth=1;fontFamily=Verdana;fontSize=12;align=center;" vertex="1" parent="1">
          <mxGeometry x="960" y="80" width="100" height="720" as="geometry" />
        </mxCell>
        <mxCell id="7baba1c4bc27f4b0-3" value="Program.py" style="shape=umlLifeline;perimeter=lifelinePerimeter;whiteSpace=wrap;html=1;container=1;collapsible=0;recursiveResize=0;outlineConnect=0;rounded=1;shadow=0;comic=0;labelBackgroundColor=none;strokeWidth=1;fontFamily=Verdana;fontSize=12;align=center;" vertex="1" parent="1">
          <mxGeometry x="400" y="80" width="100" height="870" as="geometry" />
        </mxCell>
        <mxCell id="7baba1c4bc27f4b0-13" value="" style="html=1;points=[];perimeter=orthogonalPerimeter;rounded=0;shadow=0;comic=0;labelBackgroundColor=none;strokeWidth=1;fontFamily=Verdana;fontSize=12;align=center;" vertex="1" parent="7baba1c4bc27f4b0-3">
          <mxGeometry x="45" y="100" width="10" height="30" as="geometry" />
        </mxCell>
        <mxCell id="sWoRMy00fatXpeOjU7ja-9" value="" style="html=1;points=[];perimeter=orthogonalPerimeter;rounded=0;shadow=0;comic=0;labelBackgroundColor=none;strokeWidth=1;fontFamily=Verdana;fontSize=12;align=center;" vertex="1" parent="7baba1c4bc27f4b0-3">
          <mxGeometry x="45" y="200" width="10" height="60" as="geometry" />
        </mxCell>
        <mxCell id="sWoRMy00fatXpeOjU7ja-19" value="" style="html=1;points=[];perimeter=orthogonalPerimeter;rounded=0;shadow=0;comic=0;labelBackgroundColor=none;strokeWidth=1;fontFamily=Verdana;fontSize=12;align=center;" vertex="1" parent="7baba1c4bc27f4b0-3">
          <mxGeometry x="45" y="290" width="10" height="30" as="geometry" />
        </mxCell>
        <mxCell id="sWoRMy00fatXpeOjU7ja-24" value="" style="html=1;points=[];perimeter=orthogonalPerimeter;rounded=0;shadow=0;comic=0;labelBackgroundColor=none;strokeWidth=1;fontFamily=Verdana;fontSize=12;align=center;" vertex="1" parent="7baba1c4bc27f4b0-3">
          <mxGeometry x="45" y="350" width="10" height="30" as="geometry" />
        </mxCell>
        <mxCell id="sWoRMy00fatXpeOjU7ja-32" value="" style="html=1;points=[];perimeter=orthogonalPerimeter;rounded=0;shadow=0;comic=0;labelBackgroundColor=none;strokeWidth=1;fontFamily=Verdana;fontSize=12;align=center;" vertex="1" parent="7baba1c4bc27f4b0-3">
          <mxGeometry x="45" y="410" width="10" height="30" as="geometry" />
        </mxCell>
        <mxCell id="sWoRMy00fatXpeOjU7ja-56" value="" style="html=1;points=[];perimeter=orthogonalPerimeter;rounded=0;shadow=0;comic=0;labelBackgroundColor=none;strokeWidth=1;fontFamily=Verdana;fontSize=12;align=center;" vertex="1" parent="7baba1c4bc27f4b0-3">
          <mxGeometry x="45" y="470" width="10" height="30" as="geometry" />
        </mxCell>
        <mxCell id="sWoRMy00fatXpeOjU7ja-59" value="" style="html=1;points=[];perimeter=orthogonalPerimeter;rounded=0;shadow=0;comic=0;labelBackgroundColor=none;strokeWidth=1;fontFamily=Verdana;fontSize=12;align=center;" vertex="1" parent="7baba1c4bc27f4b0-3">
          <mxGeometry x="45" y="680" width="10" height="40" as="geometry" />
        </mxCell>
        <mxCell id="sWoRMy00fatXpeOjU7ja-75" value="" style="html=1;points=[];perimeter=orthogonalPerimeter;rounded=0;shadow=0;comic=0;labelBackgroundColor=none;strokeWidth=1;fontFamily=Verdana;fontSize=12;align=center;" vertex="1" parent="7baba1c4bc27f4b0-3">
          <mxGeometry x="45" y="820" width="10" height="40" as="geometry" />
        </mxCell>
        <mxCell id="7baba1c4bc27f4b0-4" value="Camera" style="shape=umlLifeline;perimeter=lifelinePerimeter;whiteSpace=wrap;html=1;container=1;collapsible=0;recursiveResize=0;outlineConnect=0;rounded=1;shadow=0;comic=0;labelBackgroundColor=none;strokeWidth=1;fontFamily=Verdana;fontSize=12;align=center;" vertex="1" parent="1">
          <mxGeometry x="540" y="80" width="100" height="860" as="geometry" />
        </mxCell>
        <mxCell id="7baba1c4bc27f4b0-16" value="" style="html=1;points=[];perimeter=orthogonalPerimeter;rounded=0;shadow=0;comic=0;labelBackgroundColor=none;strokeWidth=1;fontFamily=Verdana;fontSize=12;align=center;" vertex="1" parent="7baba1c4bc27f4b0-4">
          <mxGeometry x="45" y="260" width="10" height="30" as="geometry" />
        </mxCell>
        <mxCell id="sWoRMy00fatXpeOjU7ja-30" value="" style="html=1;points=[];perimeter=orthogonalPerimeter;rounded=0;shadow=0;comic=0;labelBackgroundColor=none;strokeWidth=1;fontFamily=Verdana;fontSize=12;align=center;" vertex="1" parent="7baba1c4bc27f4b0-4">
          <mxGeometry x="45" y="380" width="10" height="30" as="geometry" />
        </mxCell>
        <mxCell id="sWoRMy00fatXpeOjU7ja-55" value="atPos" style="endArrow=classic;html=1;rounded=0;exitX=0.017;exitY=1.001;exitDx=0;exitDy=0;exitPerimeter=0;entryX=1.023;entryY=0.005;entryDx=0;entryDy=0;entryPerimeter=0;" edge="1" parent="7baba1c4bc27f4b0-4" target="sWoRMy00fatXpeOjU7ja-56">
          <mxGeometry x="0.4944" y="-10" width="50" height="50" relative="1" as="geometry">
            <mxPoint x="185.5" y="470" as="sourcePoint" />
            <mxPoint x="-80" y="470" as="targetPoint" />
            <mxPoint as="offset" />
          </mxGeometry>
        </mxCell>
        <mxCell id="7baba1c4bc27f4b0-5" value="DoBot" style="shape=umlLifeline;perimeter=lifelinePerimeter;whiteSpace=wrap;html=1;container=1;collapsible=0;recursiveResize=0;outlineConnect=0;rounded=1;shadow=0;comic=0;labelBackgroundColor=none;strokeWidth=1;fontFamily=Verdana;fontSize=12;align=center;" vertex="1" parent="1">
          <mxGeometry x="680" y="80" width="100" height="810" as="geometry" />
        </mxCell>
        <mxCell id="sWoRMy00fatXpeOjU7ja-22" value="" style="html=1;points=[];perimeter=orthogonalPerimeter;rounded=0;shadow=0;comic=0;labelBackgroundColor=none;strokeWidth=1;fontFamily=Verdana;fontSize=12;align=center;" vertex="1" parent="7baba1c4bc27f4b0-5">
          <mxGeometry x="45" y="440" width="10" height="30" as="geometry" />
        </mxCell>
        <mxCell id="sWoRMy00fatXpeOjU7ja-40" value="" style="html=1;points=[];perimeter=orthogonalPerimeter;rounded=0;shadow=0;comic=0;labelBackgroundColor=none;strokeWidth=1;fontFamily=Verdana;fontSize=12;align=center;" vertex="1" parent="7baba1c4bc27f4b0-5">
          <mxGeometry x="-235" y="530" width="10" height="40" as="geometry" />
        </mxCell>
        <mxCell id="sWoRMy00fatXpeOjU7ja-41" value="sucktion = On" style="endArrow=classic;html=1;rounded=0;exitX=-0.134;exitY=0.996;exitDx=0;exitDy=0;exitPerimeter=0;" edge="1" parent="7baba1c4bc27f4b0-5">
          <mxGeometry x="0.1089" y="11" width="50" height="50" relative="1" as="geometry">
            <mxPoint x="322.6600000000001" y="530.8800000000001" as="sourcePoint" />
            <mxPoint x="-225" y="530" as="targetPoint" />
            <mxPoint as="offset" />
          </mxGeometry>
        </mxCell>
        <mxCell id="sWoRMy00fatXpeOjU7ja-54" value="" style="html=1;points=[];perimeter=orthogonalPerimeter;rounded=0;shadow=0;comic=0;labelBackgroundColor=none;strokeWidth=1;fontFamily=Verdana;fontSize=12;align=center;" vertex="1" parent="7baba1c4bc27f4b0-5">
          <mxGeometry x="-235" y="610" width="10" height="40" as="geometry" />
        </mxCell>
        <mxCell id="sWoRMy00fatXpeOjU7ja-48" value="" style="html=1;points=[];perimeter=orthogonalPerimeter;rounded=0;shadow=0;comic=0;labelBackgroundColor=none;strokeWidth=1;fontFamily=Verdana;fontSize=12;align=center;" vertex="1" parent="7baba1c4bc27f4b0-5">
          <mxGeometry x="45" y="570" width="10" height="40" as="geometry" />
        </mxCell>
        <mxCell id="sWoRMy00fatXpeOjU7ja-37" value="" style="html=1;points=[];perimeter=orthogonalPerimeter;rounded=0;shadow=0;comic=0;labelBackgroundColor=none;strokeWidth=1;fontFamily=Verdana;fontSize=12;align=center;" vertex="1" parent="7baba1c4bc27f4b0-5">
          <mxGeometry x="325" y="500" width="10" height="30" as="geometry" />
        </mxCell>
        <mxCell id="sWoRMy00fatXpeOjU7ja-43" value="suckerOff" style="endArrow=classic;html=1;rounded=0;exitX=1.003;exitY=0.997;exitDx=0;exitDy=0;exitPerimeter=0;" edge="1" parent="7baba1c4bc27f4b0-5" source="sWoRMy00fatXpeOjU7ja-54">
          <mxGeometry x="-0.1111" y="10" width="50" height="50" relative="1" as="geometry">
            <mxPoint x="100" y="650" as="sourcePoint" />
            <mxPoint x="325" y="650" as="targetPoint" />
            <mxPoint as="offset" />
          </mxGeometry>
        </mxCell>
        <mxCell id="sWoRMy00fatXpeOjU7ja-42" value="" style="html=1;points=[];perimeter=orthogonalPerimeter;rounded=0;shadow=0;comic=0;labelBackgroundColor=none;strokeWidth=1;fontFamily=Verdana;fontSize=12;align=center;" vertex="1" parent="7baba1c4bc27f4b0-5">
          <mxGeometry x="325" y="650" width="10" height="30" as="geometry" />
        </mxCell>
        <mxCell id="sWoRMy00fatXpeOjU7ja-38" value="suckerOn" style="endArrow=classic;html=1;rounded=0;exitX=1.267;exitY=1;exitDx=0;exitDy=0;exitPerimeter=0;" edge="1" parent="7baba1c4bc27f4b0-5" source="sWoRMy00fatXpeOjU7ja-56">
          <mxGeometry x="-0.0741" y="10" width="50" height="50" relative="1" as="geometry">
            <mxPoint x="55" y="500" as="sourcePoint" />
            <mxPoint x="325" y="500" as="targetPoint" />
            <mxPoint as="offset" />
          </mxGeometry>
        </mxCell>
        <mxCell id="sWoRMy00fatXpeOjU7ja-50" value="moveToDroppoint" style="endArrow=classic;html=1;rounded=0;exitX=1.009;exitY=0.991;exitDx=0;exitDy=0;exitPerimeter=0;entryX=0.077;entryY=0.001;entryDx=0;entryDy=0;entryPerimeter=0;" edge="1" parent="7baba1c4bc27f4b0-5" source="sWoRMy00fatXpeOjU7ja-40" target="sWoRMy00fatXpeOjU7ja-48">
          <mxGeometry x="-0.1111" y="10" width="50" height="50" relative="1" as="geometry">
            <mxPoint x="-225" y="571" as="sourcePoint" />
            <mxPoint x="43" y="570" as="targetPoint" />
            <mxPoint as="offset" />
          </mxGeometry>
        </mxCell>
        <mxCell id="sWoRMy00fatXpeOjU7ja-53" value="atDroppoint" style="endArrow=classic;html=1;rounded=0;exitX=0.017;exitY=1.001;exitDx=0;exitDy=0;exitPerimeter=0;" edge="1" parent="7baba1c4bc27f4b0-5">
          <mxGeometry x="0.4944" y="-10" width="50" height="50" relative="1" as="geometry">
            <mxPoint x="45" y="610" as="sourcePoint" />
            <mxPoint x="-225" y="610" as="targetPoint" />
            <mxPoint as="offset" />
          </mxGeometry>
        </mxCell>
        <mxCell id="sWoRMy00fatXpeOjU7ja-61" value="" style="html=1;points=[];perimeter=orthogonalPerimeter;rounded=0;shadow=0;comic=0;labelBackgroundColor=none;strokeWidth=1;fontFamily=Verdana;fontSize=12;align=center;" vertex="1" parent="7baba1c4bc27f4b0-5">
          <mxGeometry x="45" y="720" width="10" height="30" as="geometry" />
        </mxCell>
        <mxCell id="sWoRMy00fatXpeOjU7ja-70" value="startConveyor" style="html=1;verticalAlign=bottom;endArrow=block;labelBackgroundColor=none;fontFamily=Verdana;fontSize=12;edgeStyle=elbowEdgeStyle;elbow=vertical;" edge="1" parent="7baba1c4bc27f4b0-5">
          <mxGeometry x="-0.3773" relative="1" as="geometry">
            <mxPoint x="-225" y="790" as="sourcePoint" />
            <Array as="points">
              <mxPoint x="170" y="790" />
              <mxPoint x="45" y="829" />
              <mxPoint x="-35" y="801" />
              <mxPoint x="-195" y="811" />
            </Array>
            <mxPoint x="185" y="790" as="targetPoint" />
            <mxPoint as="offset" />
          </mxGeometry>
        </mxCell>
        <mxCell id="sWoRMy00fatXpeOjU7ja-71" value="conveyorRunning(True)" style="endArrow=classic;html=1;rounded=0;" edge="1" parent="7baba1c4bc27f4b0-5">
          <mxGeometry x="0.2439" y="-10" width="50" height="50" relative="1" as="geometry">
            <mxPoint x="185" y="820" as="sourcePoint" />
            <mxPoint x="-225" y="820" as="targetPoint" />
            <mxPoint as="offset" />
          </mxGeometry>
        </mxCell>
        <mxCell id="7baba1c4bc27f4b0-8" value="User" style="shape=umlLifeline;perimeter=lifelinePerimeter;whiteSpace=wrap;html=1;container=1;collapsible=0;recursiveResize=0;outlineConnect=0;rounded=1;shadow=0;comic=0;labelBackgroundColor=none;strokeWidth=1;fontFamily=Verdana;fontSize=12;align=center;" vertex="1" parent="1">
          <mxGeometry x="260" y="80" width="100" height="130" as="geometry" />
        </mxCell>
        <mxCell id="7baba1c4bc27f4b0-9" value="" style="html=1;points=[];perimeter=orthogonalPerimeter;rounded=0;shadow=0;comic=0;labelBackgroundColor=none;strokeWidth=1;fontFamily=Verdana;fontSize=12;align=center;" vertex="1" parent="7baba1c4bc27f4b0-8">
          <mxGeometry x="45" y="70" width="10" height="30" as="geometry" />
        </mxCell>
        <mxCell id="7baba1c4bc27f4b0-17" value="startHoming" style="html=1;verticalAlign=bottom;endArrow=block;labelBackgroundColor=none;fontFamily=Verdana;fontSize=12;edgeStyle=elbowEdgeStyle;elbow=vertical;entryX=0.26;entryY=-0.007;entryDx=0;entryDy=0;entryPerimeter=0;" edge="1" parent="1" source="7baba1c4bc27f4b0-13" target="7baba1c4bc27f4b0-19">
          <mxGeometry x="-0.3773" relative="1" as="geometry">
            <mxPoint x="510" y="220" as="sourcePoint" />
            <Array as="points">
              <mxPoint x="650" y="210" />
              <mxPoint x="700" y="238" />
              <mxPoint x="620" y="210" />
              <mxPoint x="460" y="220" />
            </Array>
            <mxPoint x="720" y="222" as="targetPoint" />
            <mxPoint as="offset" />
          </mxGeometry>
        </mxCell>
        <mxCell id="7baba1c4bc27f4b0-19" value="" style="html=1;points=[];perimeter=orthogonalPerimeter;rounded=0;shadow=0;comic=0;labelBackgroundColor=none;strokeWidth=1;fontFamily=Verdana;fontSize=12;align=center;" vertex="1" parent="1">
          <mxGeometry x="725" y="210" width="10" height="70" as="geometry" />
        </mxCell>
        <mxCell id="7baba1c4bc27f4b0-11" value="Start program" style="html=1;verticalAlign=bottom;endArrow=block;labelBackgroundColor=none;fontFamily=Verdana;fontSize=12;edgeStyle=elbowEdgeStyle;elbow=vertical;entryX=-0.004;entryY=0.001;entryDx=0;entryDy=0;entryPerimeter=0;exitX=0.97;exitY=0.983;exitDx=0;exitDy=0;exitPerimeter=0;" edge="1" parent="1" source="7baba1c4bc27f4b0-9" target="7baba1c4bc27f4b0-13">
          <mxGeometry x="-0.1466" relative="1" as="geometry">
            <mxPoint x="340" y="180" as="sourcePoint" />
            <mxPoint x="447" y="180.1400000000001" as="targetPoint" />
            <Array as="points">
              <mxPoint x="390" y="180" />
            </Array>
            <mxPoint as="offset" />
          </mxGeometry>
        </mxCell>
        <mxCell id="sWoRMy00fatXpeOjU7ja-5" value="Actor" style="shape=umlActor;verticalLabelPosition=bottom;verticalAlign=top;html=1;outlineConnect=0;" vertex="1" parent="1">
          <mxGeometry x="295" width="30" height="60" as="geometry" />
        </mxCell>
        <mxCell id="sWoRMy00fatXpeOjU7ja-7" value="doneHoming" style="endArrow=classic;html=1;rounded=0;exitX=0.017;exitY=1.001;exitDx=0;exitDy=0;exitPerimeter=0;" edge="1" parent="1" source="7baba1c4bc27f4b0-19">
          <mxGeometry x="0.4944" y="-10" width="50" height="50" relative="1" as="geometry">
            <mxPoint x="720" y="240" as="sourcePoint" />
            <mxPoint x="455" y="280" as="targetPoint" />
            <mxPoint as="offset" />
          </mxGeometry>
        </mxCell>
        <mxCell id="sWoRMy00fatXpeOjU7ja-18" value="startDetecting" style="endArrow=classic;html=1;rounded=0;exitX=1.084;exitY=1.004;exitDx=0;exitDy=0;exitPerimeter=0;" edge="1" parent="1" source="sWoRMy00fatXpeOjU7ja-9">
          <mxGeometry x="0.0031" y="8" width="50" height="50" relative="1" as="geometry">
            <mxPoint x="305" y="320" as="sourcePoint" />
            <mxPoint x="585" y="340" as="targetPoint" />
            <mxPoint as="offset" />
          </mxGeometry>
        </mxCell>
        <mxCell id="sWoRMy00fatXpeOjU7ja-21" value="stopConveyor" style="html=1;verticalAlign=bottom;endArrow=block;labelBackgroundColor=none;fontFamily=Verdana;fontSize=12;edgeStyle=elbowEdgeStyle;elbow=vertical;" edge="1" parent="1">
          <mxGeometry x="-0.3773" relative="1" as="geometry">
            <mxPoint x="455" y="400" as="sourcePoint" />
            <Array as="points">
              <mxPoint x="850" y="400" />
              <mxPoint x="725" y="439" />
              <mxPoint x="645" y="411" />
              <mxPoint x="485" y="421" />
            </Array>
            <mxPoint x="865" y="400" as="targetPoint" />
            <mxPoint as="offset" />
          </mxGeometry>
        </mxCell>
        <mxCell id="sWoRMy00fatXpeOjU7ja-27" value="conveyorRunning(False)" style="endArrow=classic;html=1;rounded=0;" edge="1" parent="1">
          <mxGeometry x="0.2439" y="-10" width="50" height="50" relative="1" as="geometry">
            <mxPoint x="865" y="430" as="sourcePoint" />
            <mxPoint x="455" y="430" as="targetPoint" />
            <mxPoint as="offset" />
          </mxGeometry>
        </mxCell>
        <mxCell id="sWoRMy00fatXpeOjU7ja-31" value="checkPosition(x,y)" style="endArrow=classic;html=1;rounded=0;" edge="1" parent="1">
          <mxGeometry y="10" width="50" height="50" relative="1" as="geometry">
            <mxPoint x="455" y="460" as="sourcePoint" />
            <mxPoint x="585" y="460" as="targetPoint" />
            <mxPoint as="offset" />
          </mxGeometry>
        </mxCell>
        <mxCell id="sWoRMy00fatXpeOjU7ja-33" value="give Position(x,y)" style="endArrow=classic;html=1;rounded=0;" edge="1" parent="1">
          <mxGeometry width="50" height="50" relative="1" as="geometry">
            <mxPoint x="585" y="489" as="sourcePoint" />
            <mxPoint x="455" y="489" as="targetPoint" />
          </mxGeometry>
        </mxCell>
        <mxCell id="sWoRMy00fatXpeOjU7ja-23" value="moveToPosition(x,y), moveToPosition(z)" style="endArrow=classic;html=1;rounded=0;" edge="1" parent="1">
          <mxGeometry x="0.0037" y="10" width="50" height="50" relative="1" as="geometry">
            <mxPoint x="455.5" y="520" as="sourcePoint" />
            <mxPoint x="724.5" y="520" as="targetPoint" />
            <mxPoint as="offset" />
          </mxGeometry>
        </mxCell>
        <mxCell id="7baba1c4bc27f4b0-6" value="Conveyor Belt" style="shape=umlLifeline;perimeter=lifelinePerimeter;whiteSpace=wrap;html=1;container=1;collapsible=0;recursiveResize=0;outlineConnect=0;rounded=1;shadow=0;comic=0;labelBackgroundColor=none;strokeWidth=1;fontFamily=Verdana;fontSize=12;align=center;" vertex="1" parent="1">
          <mxGeometry x="820" y="80" width="100" height="890" as="geometry" />
        </mxCell>
        <mxCell id="7baba1c4bc27f4b0-22" value="" style="html=1;points=[];perimeter=orthogonalPerimeter;rounded=0;shadow=0;comic=0;labelBackgroundColor=none;strokeWidth=1;fontFamily=Verdana;fontSize=12;align=center;" vertex="1" parent="7baba1c4bc27f4b0-6">
          <mxGeometry x="45" y="320" width="10" height="30" as="geometry" />
        </mxCell>
        <mxCell id="sWoRMy00fatXpeOjU7ja-74" value="" style="html=1;points=[];perimeter=orthogonalPerimeter;rounded=0;shadow=0;comic=0;labelBackgroundColor=none;strokeWidth=1;fontFamily=Verdana;fontSize=12;align=center;" vertex="1" parent="7baba1c4bc27f4b0-6">
          <mxGeometry x="45" y="790" width="10" height="30" as="geometry" />
        </mxCell>
        <mxCell id="sWoRMy00fatXpeOjU7ja-58" value="sucktion = Off" style="endArrow=classic;html=1;rounded=0;exitX=-0.134;exitY=0.996;exitDx=0;exitDy=0;exitPerimeter=0;" edge="1" parent="1">
          <mxGeometry x="0.1089" y="11" width="50" height="50" relative="1" as="geometry">
            <mxPoint x="1003.83" y="760.8800000000001" as="sourcePoint" />
            <mxPoint x="456.17" y="760" as="targetPoint" />
            <mxPoint as="offset" />
          </mxGeometry>
        </mxCell>
        <mxCell id="sWoRMy00fatXpeOjU7ja-62" value="moveToPos0" style="endArrow=classic;html=1;rounded=0;exitX=1.009;exitY=0.991;exitDx=0;exitDy=0;exitPerimeter=0;entryX=0.077;entryY=0.001;entryDx=0;entryDy=0;entryPerimeter=0;" edge="1" parent="1">
          <mxGeometry x="-0.1111" y="10" width="50" height="50" relative="1" as="geometry">
            <mxPoint x="454" y="800" as="sourcePoint" />
            <mxPoint x="725" y="800" as="targetPoint" />
            <mxPoint as="offset" />
          </mxGeometry>
        </mxCell>
        <mxCell id="sWoRMy00fatXpeOjU7ja-63" value="atPos0" style="endArrow=classic;html=1;rounded=0;exitX=0.017;exitY=1.001;exitDx=0;exitDy=0;exitPerimeter=0;" edge="1" parent="1">
          <mxGeometry x="0.4944" y="-10" width="50" height="50" relative="1" as="geometry">
            <mxPoint x="725" y="830" as="sourcePoint" />
            <mxPoint x="455" y="830" as="targetPoint" />
            <mxPoint as="offset" />
          </mxGeometry>
        </mxCell>
        <mxCell id="sWoRMy00fatXpeOjU7ja-64" value="" style="html=1;points=[];perimeter=orthogonalPerimeter;rounded=0;shadow=0;comic=0;labelBackgroundColor=none;strokeWidth=1;fontFamily=Verdana;fontSize=12;align=center;" vertex="1" parent="1">
          <mxGeometry x="445" y="830" width="10" height="40" as="geometry" />
        </mxCell>
        <mxCell id="sWoRMy00fatXpeOjU7ja-65" value="startDetecting" style="endArrow=classic;html=1;rounded=0;exitX=1.084;exitY=1.004;exitDx=0;exitDy=0;exitPerimeter=0;" edge="1" parent="1">
          <mxGeometry x="0.0031" y="8" width="50" height="50" relative="1" as="geometry">
            <mxPoint x="455" y="939.39" as="sourcePoint" />
            <mxPoint x="584" y="939.39" as="targetPoint" />
            <mxPoint as="offset" />
          </mxGeometry>
        </mxCell>
        <mxCell id="sWoRMy00fatXpeOjU7ja-66" value="" style="html=1;points=[];perimeter=orthogonalPerimeter;rounded=0;shadow=0;comic=0;labelBackgroundColor=none;strokeWidth=1;fontFamily=Verdana;fontSize=12;align=center;" vertex="1" parent="1">
          <mxGeometry x="584" y="940" width="10" height="30" as="geometry" />
        </mxCell>
        <mxCell id="sWoRMy00fatXpeOjU7ja-69" value="" style="endArrow=classic;html=1;rounded=0;exitX=-0.067;exitY=1.019;exitDx=0;exitDy=0;exitPerimeter=0;" edge="1" parent="1" source="7baba1c4bc27f4b0-16">
          <mxGeometry width="50" height="50" relative="1" as="geometry">
            <mxPoint x="500" y="380" as="sourcePoint" />
            <mxPoint x="455" y="370" as="targetPoint" />
          </mxGeometry>
        </mxCell>
      </root>
    </mxGraphModel>
  </diagram>
</mxfile>
